<?xml version="1.0" encoding="UTF-8"?>
<svg width="97px" height="95px" viewBox="0 0 97 95" version="1.1" xmlns="http://www.w3.org/2000/svg" xmlns:xlink="http://www.w3.org/1999/xlink">
    <!-- Generator: Sketch 61.2 (89653) - https://sketch.com -->
    <title>BHAG</title>
    <desc>Created with Sketch.</desc>
    <g id="GoodUp-Website-Designs-1600px" stroke="none" stroke-width="1" fill="none" fill-rule="evenodd">
        <g id="impact.goodup.com" transform="translate(-1357.000000, -569.000000)" fill-rule="nonzero">
            <g id="BHAG" transform="translate(1405.500000, 616.500000) scale(-1, 1) translate(-1405.500000, -616.500000) translate(1357.000000, 569.000000)">
                <g id="Group">
                    <path d="M62.6360709,86.5308688 C62.355269,85.9369564 62.5489368,85.1592694 61.9945673,84.531616 C61.5819137,84.8339768 61.1827418,85.7636638 60.6921609,84.4978746 C60.3531599,83.6228945 59.311169,83.5036535 58.4141823,83.4813775 C53.6494322,83.3624641 48.8843533,83.2396199 44.1189457,83.1619821 C42.6261595,83.1377407 41.0616932,83.2717231 39.9437476,84.3311336 C38.9925074,85.2326482 38.7577388,84.7209603 38.4608256,83.7680148 C37.9051409,84.5329262 38.0981509,85.4554062 37.4434951,86.1272835 C37.1377041,85.6951988 36.8467094,85.2840791 36.4274798,84.6914773 C35.9990436,85.8809393 35.6886492,87.3177281 33.9936464,85.328303 C34.4375366,87.5152621 34.7308329,89.2242743 35.1421711,90.9047865 C35.4828157,92.2966965 37.2527867,93.8484677 25.2634775,94.897068 C17.3444768,95.5899107 19.7010404,89.8024623 23.5793253,90.6473045 C24.5114947,90.8504073 24.3405148,90.7911147 24.6676783,90.5889944 C24.0850313,89.0499993 23.5428277,87.4710382 23.2429552,85.7135435 C22.5245107,85.8589914 22.5208939,86.7506784 21.8004766,86.8410917 C21.1888945,86.0896112 21.4174157,85.0030109 20.8814595,84.1123069 C20.2613285,84.3475128 20.4214577,85.2382173 19.5964797,85.476044 C19.2071715,84.3193405 18.9135464,83.1138268 18.3835086,82.0223127 C18.1480824,81.5371593 18.6278126,80.1580254 17.1199013,80.6716788 C16.8716516,80.7561958 16.9199863,80.0161807 16.9088069,79.6614061 C16.8456758,77.6359465 16.5342951,75.6478316 16.1206552,73.6813374 C15.4258848,73.403873 15.4985513,74.4288871 14.7613648,74.2536291 C14.5285691,72.3064625 14.4338725,70.2253135 13.4615886,68.2683193 C12.8881483,68.6856626 13.0015869,69.5213325 12.1937067,69.950797 C11.9553213,68.1893709 11.7284441,66.5108242 11.4700014,64.60133 C10.4641791,65.520534 9.97326947,66.3526007 9.88514904,67.620683 C9.72436218,69.9357278 9.92888047,73.1159255 9.24726244,76.3236403 C8.87735396,77.0403969 8.67382211,76.4913638 8.61003346,76.385226 C8.04251163,75.4352289 7.78932984,72.8843228 7.44046503,72.2625657 C6.47377088,72.7113579 5.09705371,75.1554713 3.90381117,75.4843667 C3.82423975,75.5063151 3.55461757,75.566263 3.49280175,75.3100916 C3.27907686,74.2719738 5.69778509,71.7993603 4.56635836,70.8650871 C3.84791389,70.2721582 1.22961948,71.1880862 0.143239384,70.8981733 C-0.0122865803,70.8568978 -0.0415504511,70.6524844 0.698266504,70.5116227 C3.43887732,70.0156587 4.58444278,68.4226119 4.87445103,65.702999 C5.17530992,62.8824902 5.43145098,60.0554297 5.42323081,57.2113348 C5.42027154,56.1591308 5.40448876,55.2743231 3.83114471,56.4487165 C4.46705848,53.7657933 5.05956966,51.3573863 4.85044809,48.7314632 C3.94195285,49.1330825 3.78412523,50.226562 2.65861704,50.4824063 C3.18142102,47.3958982 4.02579877,44.4371483 4.21321907,41.1527787 C3.18339386,42.0526554 2.48665069,43.1363074 0.917909938,43.5294096 C2.41135377,40.0131097 3.89493337,36.7696883 4.64395694,33.211785 C3.71704849,33.4361809 3.617091,34.6403842 2.53991752,34.5869878 C2.58858103,34.3874884 2.59318434,34.2358165 2.65861704,34.1175582 C6.40274845,27.3784747 9.43468274,20.150634 15.7586381,15.1775625 C16.0910625,14.9161495 16.881187,14.6475296 15.9243571,14.0257728 C15.1750047,13.5386536 16.0562089,13.1927236 16.2863742,12.9395002 C19.1989513,9.73211311 22.4633525,6.91062145 25.9007065,4.27257756 C26.2998789,3.96628536 27.6460169,3.95514746 26.7782938,2.7538924 C26.6323033,2.55177231 27.1784526,2.52687583 27.4099331,2.44923813 C28.1625736,2.19699749 28.9260646,2.43253128 29.719806,2.45578983 C30.0032381,1.85172265 29.2233067,1.39474124 29.54225,0.719915656 C31.4716926,1.74034367 33.469856,1.30367255 35.4081764,0.797553359 C40.0114819,-0.404356876 44.4569598,-0.123616328 48.9507726,1.48351684 C53.6244426,3.15518431 58.3388851,4.82390351 63.462364,4.8707482 C63.2795471,5.56588409 62.6022039,5.33886748 62.1366121,5.82696949 C62.2714232,5.88560727 62.4055766,5.9694691 62.5512386,6.00353794 C63.3492542,6.18993395 64.1512158,6.35896794 64.948903,6.54503634 C65.1971527,6.60301891 65.6926656,6.72553581 65.4943947,6.95713859 C63.9996358,8.70349547 66.2720247,7.89567029 66.5350708,8.46665136 C66.744521,8.92133964 67.9509158,8.60489231 67.5819937,9.7154063 C67.4721723,10.0462674 67.9492716,10.0361122 68.188315,10.044957 C69.5624015,10.0954051 70.4692526,11.0142817 71.4668549,11.7637968 C71.6401367,11.8938481 71.9455984,12.1166061 71.9156773,12.2083299 C71.3797208,13.8632905 72.8994692,13.6660842 73.6406016,14.0329797 C76.0257715,15.2139245 77.8049489,16.9969709 79.2497294,19.1816369 C79.9221407,20.1981338 79.4016382,20.2056683 78.1663083,19.8905313 C82.1313986,24.2929493 87.6859441,26.9906138 88.7719954,33.3071123 C88.0302058,33.1750955 87.6935067,32.4245977 86.7590359,32.5097698 C88.2077619,35.0233314 89.560147,37.516255 89.8804056,40.419643 C88.8449908,40.4278326 88.4796854,39.4591631 87.5527771,39.2508189 C87.9318924,40.9483656 88.7085355,42.362551 89.5575169,43.7505297 C89.814644,44.1708216 90.4051824,44.741475 89.2546848,44.7965093 C89.1274364,44.8027334 88.8972714,45.0310604 88.9002303,45.035319 C89.7337576,46.3040566 88.0450022,47.4358636 88.8032323,48.8300664 C89.6318271,50.3536653 90.2276264,52.0115742 91.1696603,53.4912768 C90.871103,55.9157349 95.3645868,58.0997457 96.6479225,59.3940349 C97.4893408,60.5687559 96.4108521,60.1772915 95.9446031,59.9512574 C90.5258548,57.3266449 92.965607,62.149682 93.0925267,64.1816932 C93.1296816,64.7749503 93.2901399,65.3537935 92.3033885,64.9318636 C91.6418277,64.64883 90.0665108,59.6908275 89.2961145,60.197274 C88.8334827,60.501273 89.6900262,65.0638802 89.468081,66.9068748 C89.4200752,67.3068563 88.7253049,67.3805632 88.5303218,67.0071158 C87.4889885,64.6960023 85.9955445,57.8838669 85.0186575,55.7162354 C84.9272491,55.7398216 84.8361694,55.7634078 84.744761,55.786994 C84.6730809,56.9525422 84.6069905,58.118418 84.5280766,59.2833114 C84.4705352,60.1343777 84.1367956,60.3964458 83.3259561,59.5850174 C83.4624113,64.3657964 83.0099723,68.8930243 81.6464074,73.321649 C80.907248,73.189632 81.0269339,72.4106344 80.4354094,72.0997561 C80.160526,75.3549708 81.2922817,78.7412192 79.3651405,81.7890722 C78.6042803,81.5948142 78.6466964,80.5796277 77.8486804,80.3529388 C77.3265342,80.957006 77.2739248,81.7258482 77.2742536,82.4573463 C77.2749113,83.6006185 77.0029873,84.0883931 75.7157056,82.9860688 C75.7157056,83.9285313 75.7111025,84.6099086 75.7163633,85.291286 C75.7400376,88.1995879 76.4644006,88.2297256 77.7158423,87.7576755 C81.2692651,86.4165411 83.3792231,92.0949039 75.6029247,92.3153688 C64.3794083,92.6337817 64.6473868,91.6687155 64.782855,89.9446341 C64.8551928,89.0218269 64.8209969,88.0895192 64.8147496,87.1617977 C64.8094888,86.3916448 65.0847006,85.4403371 63.8773193,85.2968551 C62.9780309,85.190062 63.4682829,86.3526623 62.6360709,86.5308688 Z" id="Shape" fill="#FF8C64"></path>
                    <path d="M29.8707287,24.8272409 C26.6796516,24.8190512 23.5270449,24.5275004 20.4665044,23.5585032 C20.0495764,23.4264864 19.6178521,23.3128143 19.2341337,23.1123321 C18.8343038,22.9033328 18.1355877,22.7791779 18.3677259,22.1511971 C18.5472548,21.6653881 19.1354915,21.9005943 19.5458433,21.9690597 C20.8949406,22.1934555 22.257519,22.3742826 23.5803118,22.708092 C24.6653766,22.9819532 25.3335135,22.78704 25.7389332,21.6761985 C25.9760035,21.0262693 26.3551185,20.2898577 27.1840423,20.2751164 C28.0386131,20.2600475 28.4236467,21.02889 28.59923,21.6758709 C28.9993887,23.150332 30.0519017,22.8338847 31.0666017,22.7490401 C39.5044607,22.0437491 47.4468067,19.4443602 55.339503,16.5812652 C57.4188818,15.8268365 58.764362,14.8555462 59.1359147,12.5306738 C59.4137571,10.7918513 60.3732176,10.5225763 61.3727924,11.9177618 C62.6659925,13.7221013 63.8395063,13.3522576 65.2691616,12.3439502 C65.5795558,12.1251233 65.92579,11.9433135 66.2789297,11.8027794 C66.661004,11.6507798 67.0312413,11.6904177 67.2847518,12.0848303 C67.5527298,12.5021739 67.3659675,12.8307419 67.0473525,13.0819998 C66.361789,13.622843 65.6837881,14.1839965 64.9456152,14.6465469 C56.6955053,19.8155143 47.6131834,22.6723851 38.0531043,24.1648635 C35.3466894,24.5881036 32.6175869,24.8409994 29.8707287,24.8272409 Z" id="Shape" fill="#FEFEFE"></path>
                    <path d="M40.744394,6.40450226 C43.2900219,7.6974812 42.2930774,9.63940649 46.7155388,9.87330235 C47.7141273,10.048888 47.0265907,10.6562311 46.1371663,10.5140591 C40.3955291,9.76094062 35.3374828,11.2966602 30.8173656,14.8349084 C29.880593,15.4134239 30.2057836,14.3851338 30.2505014,14.3487719 C33.9906871,11.3186084 32.5870077,11.3494014 33.0397758,9.60533765 C33.4629511,7.97592867 35.7274486,4.22933631 40.744394,6.40450226 Z" id="Shape" fill="#FCFCFC"></path>
                    <path d="M23.2136913,71.9428428 C24.4605295,70.5332434 25.4972597,69.3575399 26.5389219,68.1860954 C26.7529757,67.9456475 26.9660429,67.5856314 27.3126061,67.6629415 C27.8097631,67.7739931 27.6815282,68.2614401 27.6982973,68.6198184 C27.7390695,69.4908671 27.9189272,70.3183476 28.348021,71.2365691 C28.6847199,70.8372424 28.9309968,70.5456918 29.4344011,69.9488315 C29.1831921,71.1746553 29.0677807,72.0080321 28.5065062,72.812909 C27.3500901,71.7702055 27.4197973,70.3081923 26.8614822,68.8982658 C25.7208488,70.183055 24.6515667,71.3908617 23.5776813,72.5940823 C23.3636276,72.8338744 23.147601,73.1889771 22.7984074,73.1018394 C22.3140739,72.9812878 22.4261973,72.4954791 22.4090993,72.1374284 C22.3249246,70.3779679 22.597506,68.7413524 24.2635738,67.1558398 C24.0567539,68.9516621 22.9759635,70.1086933 23.2136913,71.9428428 Z" id="Shape" fill="#F3F3F3"></path>
                    <path d="M33.1920136,78.2023414 C32.8563011,78.6232883 32.6494812,79.1569246 32.0803153,79.4474928 C31.3727215,78.9924772 31.8718514,78.1168419 31.351349,77.4128608 C30.4997375,78.2629446 30.2330746,79.5379066 29.22791,80.2350079 C28.5134112,79.6682854 29.1138138,78.7264777 28.5019029,78.084411 C27.7758959,78.7159952 27.061726,79.3367693 26.1644102,80.117077 C25.9697561,78.1247036 26.2147177,76.4045536 25.9842236,74.6939036 C26.8641126,75.8067109 26.6605808,77.1422756 26.7536333,78.4988063 C27.4783251,78.4378755 27.7354526,77.8403599 28.1629024,77.4970507 C28.4502802,77.2664305 28.6482223,76.7933973 29.0769873,76.9106729 C29.5826933,77.0489139 29.3094542,77.5553608 29.3735717,77.897687 C29.4228929,78.1597552 29.4071101,78.4339441 29.4284826,78.8683224 C30.5266998,78.0257732 30.6490161,76.7216564 31.3891619,75.8040901 C32.4761997,76.3295366 31.4878042,77.8718078 32.6951854,78.2577036 C32.8467657,78.1135658 33.0124847,78.0948935 33.1920136,78.2023414 Z" id="Shape" fill="#E9E9E9"></path>
                    <path d="M53.6247714,68.9654206 C53.7059871,68.3187672 53.8108766,67.6835793 54.4300213,67.2790116 C55.1389303,67.6655623 55.0827042,68.6535594 55.9080113,69.0620584 C56.2726585,67.640666 55.9879111,66.0964289 57.1249277,64.9508636 C56.9381653,66.6788758 56.5334032,68.3724912 56.8414956,70.1290034 C56.9740049,70.8831047 56.3828093,70.717019 56.0326291,70.3648646 C55.5029203,69.8325384 55.0353561,69.2392819 54.5253752,68.653887 C53.9479895,69.0165238 54.1137082,69.5976602 54.0199984,70.0952619 C53.9562097,70.4339854 54.2465468,70.9594318 53.7359087,71.0681904 C53.3245705,71.1556553 53.1243266,70.7068637 52.9346043,70.3792785 C53.56723,70.1031241 53.483713,69.4797293 53.6247714,68.9654206 Z" id="Shape" fill="#EEEEEE"></path>
                    <path d="M72.6328065,68.60737 C72.7015272,69.5875048 72.4486744,70.0900204 72.0501596,70.7992429 C71.533603,69.9734002 71.1235797,69.3182298 70.6497681,68.5601976 C69.8152548,69.2497643 69.9286934,70.3838646 69.2773253,71.0622936 C68.6571946,70.8549323 68.6562081,70.1869859 68.8646718,70.0136933 C69.674196,69.3401782 69.5048601,68.0756991 70.2936695,67.5738383 C70.8108837,67.2446153 71.0814923,68.1343369 71.3478267,68.5520078 C71.6674276,69.0541962 71.8548476,69.6739873 72.6328065,68.60737 Z" id="Shape" fill="#E9E9E9"></path>
                    <path d="M40.8752593,71.9611874 C41.2382629,72.0948423 41.6364488,73.073667 41.890617,71.7954294 C42.3190532,69.639591 42.387774,69.6530219 43.4465343,68.7590418 C43.0476907,70.364537 42.3493035,71.7472746 42.5120633,73.3016665 C42.5613844,73.7737167 42.1240704,73.7612683 41.8143336,73.5745448 C41.2987635,73.2636665 40.8305415,72.8866159 40.5691395,72.316945 C40.6283249,72.1616699 40.6648225,71.9870667 40.8752593,71.9611874 Z" id="Shape" fill="#E6E6E6"></path>
                    <path d="M78.1623628,57.8180227 C79.2773492,59.4326902 79.518694,61.1780641 79.3756626,63.3207993 C77.5188862,61.5610116 78.8462822,59.4595519 78.1623628,57.8180227 Z" id="Shape" fill="#EFEFEF"></path>
                    <path d="M46.5297625,76.7694835 C47.2804302,76.4219158 47.3409307,77.3945161 47.9686243,77.1982927 C48.1412483,76.2253647 48.163936,75.1364713 49.2779361,74.0626471 C49.0497436,75.7228486 48.5871113,76.9388453 48.6462969,78.2334621 C48.671286,78.7775814 48.2550157,78.8735639 47.90089,78.4879957 C47.413926,77.9569801 46.996998,77.3620853 46.5297625,76.7694835 Z" id="Shape" fill="#E2E2E2"></path>
                    <path d="M18.8484425,67.4526319 C18.5804644,67.8418033 18.353916,68.4399737 17.8126987,68.302388 C17.2908812,68.1697161 17.5115111,67.5558213 17.5328835,67.1695983 C17.6012755,65.9329639 16.9022307,64.8365364 16.7338812,63.3348855 C18.1799768,64.4483475 17.8636639,65.973257 18.4847814,67.0824605 C18.8040535,67.0130126 18.9464271,67.1158743 18.8484425,67.4526319 Z" id="Shape" fill="#F1F1F1"></path>
                    <path d="M73.5103937,66.7778062 C73.7754127,66.9658403 74.0348416,67.1630467 74.3074233,67.3396148 C74.574086,67.5122526 74.8489694,67.8208378 75.1807361,67.6518038 C75.674276,67.4005457 75.3306724,66.9743573 75.2504432,66.6552896 C75.0521723,65.8648261 74.8956599,65.0884493 75.2695139,63.9651596 C75.4345754,65.4464999 75.6785508,66.5950136 76.1766938,67.6773554 C76.54726,68.4822322 75.9711891,68.5005769 75.4562767,68.3993534 C74.5066807,68.2129571 73.7346402,67.7474586 73.369993,66.7853407 L73.5103937,66.7778062 Z" id="Shape" fill="#DADADA"></path>
                    <path d="M72.4013257,76.988966 C73.2907503,76.0501067 72.3730483,74.959575 72.6295182,73.6685619 C73.655398,74.9680926 73.6672349,76.2813818 73.349607,77.4308784 C73.0826149,78.3965994 72.4756365,77.5045848 72.0399663,77.273965 C72.0616676,77.0548102 72.2349494,77.025983 72.4013257,76.988966 Z" id="Shape" fill="#DEDEDE"></path>
                    <path d="M60.1101715,72.4424104 C60.8782655,73.5296656 62.1257617,74.3483014 62.132009,75.8617449 C60.9700033,74.9949543 60.4215522,73.7848545 60.1101715,72.4424104 Z" id="Shape" fill="#ECECEC"></path>
                    <path d="M38.8948515,74.2749221 C37.7558622,73.2417181 37.02854,71.9739635 36.7000613,70.4713301 C37.5243817,71.3551548 37.8268847,72.6284786 39.0050021,73.4290969 C39.1786124,72.7637712 39.331508,72.1783764 39.4840747,71.5933092 C39.6363125,72.5629616 40.3593603,73.6574241 38.8948515,74.2749221 Z" id="Shape" fill="#D0D0D0"></path>
                    <path d="M38.8948515,74.2749221 C39.6905658,73.5116485 39.5597004,72.5465823 39.4840747,71.5933092 C39.5406295,71.1923452 39.4350823,70.7196397 39.9749843,70.5116227 C40.4491247,70.8876908 40.6118845,71.4563788 40.8752593,71.9615151 C40.7730002,72.0801008 40.6710699,72.198687 40.5688107,72.316945 C40.3215474,72.1538077 40.0029329,71.8154119 39.9154701,72.4037551 C39.8382004,72.9246159 39.8904807,73.4644762 39.8825894,73.9958194 C39.8648338,75.1803676 39.4005576,74.8020069 38.8948515,74.2749221 Z" id="Shape" fill="#F4F4F4"></path>
                    <path d="M18.8484425,67.4526319 C18.7271125,67.3291324 18.6061114,67.2056329 18.4847814,67.0824605 C19.1437116,65.9778432 19.802642,64.8728982 20.4612434,63.7682808 C20.3813432,65.1968802 19.8335499,66.4204108 18.8484425,67.4526319 Z" id="Shape" fill="#D5D5D5"></path>
                    <path d="M73.5103937,66.7778062 L73.3703218,66.7846854 C72.9422142,67.0713227 73.2871336,67.769407 72.6120917,68.0491645 C72.2668435,67.0605126 72.8189112,66.1560496 72.6587822,64.8686396 C73.2733232,65.6361718 73.4607437,66.1747219 73.5103937,66.7778062 Z" id="Shape" fill="#D9D9D9"></path>
                    <path d="M72.4013257,76.988966 C72.2806534,77.0839655 72.1603098,77.178965 72.0396375,77.273965 C71.3231659,76.860225 70.6560154,77.0610346 69.9336254,77.6716534 C70.4797747,75.8024519 70.7727423,75.7480731 72.4013257,76.988966 Z" id="Shape" fill="#E6E6E6"></path>
                    <path d="M53.6247714,68.9654206 C53.6918484,69.5806256 53.629375,70.1329343 52.9346043,70.3789508 C52.0997622,69.5357463 51.7282095,68.5287492 51.7818054,66.9278403 C52.1609202,67.9063373 52.3785911,68.5035253 52.622566,69.0899031 C53.0976933,70.2308822 53.3564646,69.5350915 53.6247714,68.9654206 Z" id="Shape" fill="#CBCBCB"></path>
                    <path d="M33.1920136,78.2023414 C33.0266234,78.2206861 32.8609045,78.2393584 32.6955143,78.2577036 C33.2531718,77.2749475 33.8111582,76.2921919 34.3688158,75.3094363 C34.3625685,76.4474674 33.8483135,77.3555337 33.1920136,78.2023414 Z" id="Shape" fill="#B6B6B6"></path>
                </g>
                <circle id="Oval" fill="#3C96DC" cx="38" cy="8" r="2"></circle>
                <path d="M38.9983164,6.42667725 C39.0183004,6.78192757 38.8603777,6.97868159 38.5247919,6.99864215 C38.259394,7.01432544 38.0610158,6.89456213 38.0122742,6.6179659 C37.9559777,6.2993099 38.0939164,6.06073378 38.4141485,6.0089314 C38.7309688,5.95760426 38.942751,6.13154621 38.9983164,6.42667725 Z" id="Shape" fill="#ECECEC"></path>
            </g>
        </g>
    </g>
</svg>