<?xml version="1.0" encoding="UTF-8"?>
<svg width="259px" height="259px" viewBox="0 0 259 259" version="1.1" xmlns="http://www.w3.org/2000/svg" xmlns:xlink="http://www.w3.org/1999/xlink">
    <!-- Generator: Sketch 61.2 (89653) - https://sketch.com -->
    <title>moon</title>
    <desc>Created with Sketch.</desc>
    <defs>
        <polygon id="path-1" points="0 0.000287777778 259 0.000287777778 259 259 0 259"></polygon>
        <polygon id="path-3" points="0 0.22069816 258.999971 0.22069816 258.999971 141 0 141"></polygon>
    </defs>
    <g id="GoodUp-Website-Designs-1600px" stroke="none" stroke-width="1" fill="none" fill-rule="evenodd">
        <g id="impact.goodup.com" transform="translate(-1276.000000, -627.000000)">
            <g id="moon" transform="translate(1276.000000, 627.000000)">
                <g id="Group-3">
                    <mask id="mask-2" fill="white">
                        <use xlink:href="#path-1"></use>
                    </mask>
                    <g id="Clip-2"></g>
                    <path d="M259,129.500086 C259,201.020922 201.020836,259.000086 129.5,259.000086 C57.9791644,259.000086 0,201.020922 0,129.500086 C0,57.9792508 57.9791644,8.63333333e-05 129.5,8.63333333e-05 C201.020836,8.63333333e-05 259,57.9792508 259,129.500086" id="Fill-1" fill="#F9AB19" mask="url(#mask-2)"></path>
                </g>
                <path d="M69,83.5 C69,94.8219106 59.8218458,104 48.4998553,104 C37.1781542,104 28,94.8219106 28,83.5 C28,72.1780894 37.1781542,63 48.4998553,63 C59.8218458,63 69,72.1780894 69,83.5" id="Fill-4" fill="#F9AB19"></path>
                <path d="M28.7611239,85.3509616 C28.7611239,73.9792821 37.9794841,64.7608474 49.3507812,64.7608474 C54.5882282,64.7608474 59.3661378,66.7199283 63,69.9407851 C59.2277825,65.6851616 53.723798,63 47.5896573,63 C36.2183602,63 27,72.2184346 27,83.5898235 C27,89.7237231 29.6854305,95.227752 33.9407291,99 C30.7198983,95.3663991 28.7611239,90.5887416 28.7611239,85.3509616" id="Fill-6" fill="#C38B2B"></path>
                <path d="M48.9998574,63 C48.8663855,63 48.7343397,63.0077004 48.6014382,63.0099819 C59.5743649,63.2233102 68.4054676,72.1788193 68.4054676,83.202871 C68.4054676,94.3603955 59.3604677,103.405742 48.2027338,103.405742 C37.1790421,103.405742 28.2233087,94.5742941 28.0102671,83.6012929 C28.0079855,83.7344805 28,83.866242 28,84 C28,95.5978705 37.4020656,105 48.9998574,105 C60.5979344,105 70,95.5978705 70,84 C70,72.4018443 60.5979344,63 48.9998574,63" id="Fill-8" fill="#F8CB67"></path>
                <path d="M193,46.9998588 C193,52.5229612 188.523024,57 183,57 C177.477258,57 173,52.5229612 173,46.9998588 C173,41.4770388 177.477258,37 183,37 C188.523024,37 193,41.4770388 193,46.9998588" id="Fill-10" fill="#F9AB19"></path>
                <path d="M173.880424,48.1754808 C173.880424,42.4897864 178.489496,37.8807144 184.175481,37.8807144 C186.794371,37.8807144 189.183054,38.8599642 191,40.4705379 C189.113876,38.3425808 186.361862,37 183.295057,37 C177.609072,37 173,41.6093626 173,47.2950571 C173,50.3618615 174.342581,53.1141667 176.470247,55 C174.859964,53.1833449 173.880424,50.7943708 173.880424,48.1754808" id="Fill-12" fill="#C38B2B"></path>
                <path d="M183.5,37 C183.433263,37 183.367096,37.0037076 183.300644,37.0051336 C188.787361,37.111514 193.20286,41.5891868 193.20286,47.1012875 C193.20286,52.6804107 188.680411,57.2028602 183.101573,57.2028602 C177.589187,57.2028602 173.111229,52.7873615 173.004848,47.3006437 C173.003422,47.367381 173,47.4332627 173,47.5 C173,53.299014 177.700986,58 183.5,58 C189.299014,58 194,53.299014 194,47.5 C194,41.700986 189.299014,37 183.5,37" id="Fill-14" fill="#F8CB67"></path>
                <path d="M245,150.5 C245,164.583222 233.583222,176 219.5,176 C205.416778,176 194,164.583222 194,150.5 C194,136.416778 205.416778,125 219.5,125 C233.583222,125 245,136.416778 245,150.5" id="Fill-16" fill="#F9AB19"></path>
                <path d="M196.15255,153.317738 C196.15255,139.41927 207.41927,128.15255 221.317738,128.15255 C227.719296,128.15255 233.5588,130.54655 238,134.483495 C233.389671,129.282069 226.662383,126 219.165473,126 C205.267004,126 194,137.267004 194,151.165473 C194,158.662383 197.282069,165.389386 202.483211,170 C198.54655,165.5588 196.15255,159.719296 196.15255,153.317738" id="Fill-18" fill="#C38B2B"></path>
                <path d="M220.5,125 C220.331258,125 220.164824,125.009519 219.996947,125.012692 C233.84389,125.281812 244.988076,136.582852 244.988076,150.494043 C244.988076,164.573976 233.573903,175.988087 219.494182,175.988087 C205.582338,175.988087 194.281237,164.843673 194.012692,150.996805 C194.009519,151.164681 194,151.331403 194,151.500144 C194,166.135624 205.86444,178 220.5,178 C235.13556,178 247,166.135624 247,151.500144 C247,136.864376 235.13556,125 220.5,125" id="Fill-20" fill="#F8CB67"></path>
                <path d="M177,210.5 C177,224.583222 165.583222,236 151.5,236 C137.416778,236 126,224.583222 126,210.5 C126,196.416778 137.416778,185 151.5,185 C165.583222,185 177,196.416778 177,210.5" id="Fill-22" fill="#F9AB19"></path>
                <path d="M128.152265,212.317738 C128.152265,198.41927 139.41927,187.152265 153.318023,187.152265 C159.719296,187.152265 165.5588,189.54655 170,193.483211 C165.389671,188.282069 158.662383,185 151.165473,185 C137.267004,185 126,196.267004 126,210.165188 C126,217.662383 129.282069,224.389386 134.483211,229 C130.54655,224.558515 128.152265,218.719011 128.152265,212.317738" id="Fill-24" fill="#C38B2B"></path>
                <path d="M152.500144,185 C152.331403,185 152.16497,185.009519 151.997094,185.012692 C165.843961,185.281814 176.988087,196.582627 176.988087,210.494182 C176.988087,224.574191 165.573976,235.988364 151.494332,235.988364 C137.582852,235.988364 126.281524,224.844178 126.01298,210.996947 C126.009519,211.165112 126,211.331258 126,211.5 C126,226.13556 137.864664,238 152.500144,238 C167.135624,238 179,226.13556 179,211.5 C179,196.86444 167.135624,185 152.500144,185" id="Fill-26" fill="#F8CB67"></path>
                <path d="M115,194.500146 C115,202.508132 108.508293,209 100.499854,209 C92.4917068,209 86,202.508132 86,194.500146 C86,186.492159 92.4917068,180 100.499854,180 C108.508293,180 115,186.492159 115,194.500146" id="Fill-28" fill="#F9AB19"></path>
                <path d="M87.2227215,195.52161 C87.2227215,187.624772 93.6244843,181.222721 101.52161,181.222721 C105.158747,181.222721 108.476413,182.583344 111,184.819924 C108.380744,181.864823 104.558303,180 100.298601,180 C92.4014755,180 86,186.401763 86,194.298601 C86,198.558303 87.8645353,202.380457 90.8199244,205 C88.5830566,202.4767 87.2227215,199.158747 87.2227215,195.52161" id="Fill-30" fill="#C38B2B"></path>
                <path d="M101.000145,180 C100.904752,180 100.810519,180.005509 100.715417,180.007249 C108.553278,180.15947 114.861376,186.55623 114.861376,194.430839 C114.861376,202.400549 108.400476,208.861097 100.430688,208.861097 C92.5562933,208.861097 86.1591812,202.55306 86.0072487,194.715274 C86.005509,194.810376 86,194.904318 86,195 C86,203.2843 92.7157644,210 101.000145,210 C109.284526,210 116,203.2843 116,195 C116,186.7157 109.284526,180 101.000145,180" id="Fill-32" fill="#F8CB67"></path>
                <path d="M136,174.499859 C136,179.194447 132.194447,183 127.500141,183 C122.805553,183 119,179.194447 119,174.499859 C119,169.805553 122.805553,166 127.500141,166 C132.194447,166 136,169.805553 136,174.499859" id="Fill-34" fill="#F9AB19"></path>
                <path d="M119.73384,175.312849 C119.73384,170.574553 123.574751,166.733569 128.312672,166.733569 C130.495112,166.733569 132.485619,167.549721 134,168.891844 C132.428097,167.118863 130.134599,166 127.579117,166 C122.840911,166 119,169.840984 119,174.578995 C119,177.134526 120.119127,179.428067 121.892074,181 C120.549976,179.485591 119.73384,177.495045 119.73384,175.312849" id="Fill-36" fill="#C38B2B"></path>
                <path d="M128,166 C127.942807,166 127.886189,166.003161 127.828996,166.004311 C132.532045,166.095705 136.316558,169.933961 136.316558,174.658279 C136.316558,179.440364 132.440077,183.316845 127.658566,183.316845 C122.933674,183.316845 119.095705,179.532045 119.004311,174.829283 C119.003161,174.886189 119,174.94252 119,175 C119,179.970621 123.029379,184 128,184 C132.970621,184 137,179.970621 137,175 C137,170.029379 132.970621,166 128,166" id="Fill-38" fill="#F8CB67"></path>
                <path d="M253,115 C253,120.522686 248.522686,125 243,125 C237.476727,125 233,120.522686 233,115 C233,109.477021 237.476727,105 243,105 C248.522686,105 253,109.477021 253,115" id="Fill-40" fill="#F9AB19"></path>
                <path d="M233.831509,115.554804 C233.831509,110.184806 238.184521,105.831509 243.554519,105.831509 C246.027931,105.831509 248.283906,106.756613 250,108.277813 C248.218847,106.268095 245.619595,105 242.723009,105 C237.353011,105 233,109.353297 233,114.723009 C233,117.619595 234.267809,120.218847 236.277528,122 C234.756613,120.284192 233.831509,118.027931 233.831509,115.554804" id="Fill-42" fill="#C38B2B"></path>
                <path d="M243.000141,105 C242.936333,105 242.873654,105.00367 242.810127,105.0048 C248.035363,105.106159 252.240792,109.370597 252.240792,114.620396 C252.240792,119.933721 247.933721,124.240792 242.620396,124.240792 C237.37088,124.240792 233.106159,120.035645 233.0048,114.810127 C233.00367,114.873654 233,114.936333 233,114.999859 C233,120.522961 237.477039,125 243.000141,125 C248.522961,125 253,120.522961 253,114.999859 C253,109.477039 248.522961,105 243.000141,105" id="Fill-44" fill="#F8CB67"></path>
                <path d="M74,126.999855 C74,134.179744 68.1797438,140 60.9998553,140 C53.8202562,140 48,134.179744 48,126.999855 C48,119.820256 53.8202562,114 60.9998553,114 C68.1797438,114 74,119.820256 74,126.999855" id="Fill-46" fill="#F9AB19"></path>
                <path d="M49.1251369,128.27975 C49.1251369,121.014681 55.0146808,115.125137 62.2797499,115.125137 C65.6261682,115.125137 68.6788561,116.376493 71,118.434363 C68.590122,115.715526 65.0735567,114 61.1546131,114 C53.8898368,114 48,119.889544 48,127.154613 C48,131.073557 49.7158191,134.590122 52.4346558,137 C50.3764929,134.678856 49.1251369,131.626168 49.1251369,128.27975" id="Fill-48" fill="#C38B2B"></path>
                <path d="M61.5001446,114 C61.4139833,114 61.3292676,114.004915 61.2436846,114.006361 C68.2979236,114.143408 73.9750276,119.90054 73.9750276,126.987375 C73.9750276,134.16037 68.1602968,139.975039 60.9875138,139.975039 C53.9006029,139.975039 48.1434094,134.297995 48.0063609,127.243832 C48.0046261,127.329414 48,127.414129 48,127.5 C48,134.955763 54.0440123,141 61.5001446,141 C68.9559877,141 75,134.955763 75,127.5 C75,120.044237 68.9559877,114 61.5001446,114" id="Fill-50" fill="#F8CB67"></path>
                <path d="M101,80.0001461 C101,86.0754208 96.0751285,91 89.9998539,91 C83.9245792,91 79,86.0754208 79,80.0001461 C79,73.9248715 83.9245792,69 89.9998539,69 C96.0751285,69 101,73.9248715 101,80.0001461" id="Fill-52" fill="#F9AB19"></path>
                <path d="M80.929442,80.7962099 C80.929442,74.7944471 85.7949365,69.9291674 91.7963194,69.9291674 C94.5603915,69.9291674 97.0819251,70.9631476 99,72.6629637 C97.0088748,70.417139 94.1041882,69 90.8668774,69 C84.8652058,69 80,73.864991 80,79.8667538 C80,83.1041138 81.4171175,86.0091333 83.6631968,88 C81.9634065,86.0821847 80.929442,83.5606127 80.929442,80.7962099" id="Fill-54" fill="#C38B2B"></path>
                <path d="M90.499853,69 C90.4266561,69 90.354635,69.0041155 90.2817321,69.0055853 C96.2906405,69.1222888 101.126928,74.0264823 101.126928,80.0636112 C101.126928,86.173643 96.1739369,91.1269283 90.0636112,91.1269283 C84.0264823,91.1269283 79.1222888,86.2909344 79.0052913,80.2817321 C79.0044095,80.354635 79,80.4269501 79,80.500147 C79,86.8512289 84.1487711,92 90.499853,92 C96.8512289,92 102,86.8512289 102,80.500147 C102,74.1487711 96.8512289,69 90.499853,69" id="Fill-56" fill="#F8CB67"></path>
                <path d="M78,202.5 C78,206.642272 74.6422718,210 70.5,210 C66.3580237,210 63,206.642272 63,202.5 C63,198.357728 66.3580237,195 70.5,195 C74.6422718,195 78,198.357728 78,202.5" id="Fill-58" fill="#F9AB19"></path>
                <path d="M64.6359826,203.071208 C64.6359826,198.964711 67.9647114,195.635983 72.0712081,195.635983 C73.962458,195.635983 75.6879014,196.343151 77,197.506434 C75.6381008,195.969646 73.6501791,195 71.4352255,195 C67.3287288,195 64,198.329022 64,202.435225 C64,204.650179 64.9699394,206.637808 66.5064335,208 C65.3434437,206.687901 64.6359826,204.962458 64.6359826,203.071208" id="Fill-60" fill="#C38B2B"></path>
                <path d="M71.5,195 C71.452242,195 71.4050525,195.002559 71.3575787,195.003696 C75.2762953,195.079598 78.430315,198.278025 78.430315,202.215294 C78.430315,206.200038 75.2001099,209.430588 71.2151575,209.430588 C67.2779631,209.430588 64.0795967,206.276509 64.0036956,202.357434 C64.0028427,202.405193 64,202.452099 64,202.499858 C64,206.642092 67.3578441,210 71.5,210 C75.6418717,210 79,206.642092 79,202.499858 C79,198.357908 75.6418717,195 71.5,195" id="Fill-62" fill="#F8CB67"></path>
                <g id="Group-66" transform="translate(0.000000, 118.000000)">
                    <mask id="mask-4" fill="white">
                        <use xlink:href="#path-3"></use>
                    </mask>
                    <g id="Clip-65"></g>
                </g>
            </g>
        </g>
    </g>
</svg>