<?xml version="1.0" encoding="UTF-8"?>
<svg width="238px" height="399px" viewBox="0 0 238 399" version="1.1" xmlns="http://www.w3.org/2000/svg" xmlns:xlink="http://www.w3.org/1999/xlink">
    <!-- Generator: Sketch 61 (89581) - https://sketch.com -->
    <title>bolt</title>
    <desc>Created with Sketch.</desc>
    <g id="Page-1" stroke="none" stroke-width="1" fill="none" fill-rule="evenodd">
        <g id="bolt" fill="#FAB914" fill-rule="nonzero">
            <path d="M235.232,9.015 C231.883,3.276 225.681,0 218.244,0 L126.936,0 C116.036,0 104.712,7.113 100.006,16.924 L3.17,218.041 C0.008,224.601 0.203,231.559 3.641,237.078 C7.104,242.646 13.233,245.889 20.5,246.044 L92.162,246.946 L40.285,376.621 C39.009,379.856 36.326,386.635 41.106,393.602 C43.195,396.658 46.78,398.528 50.47,398.528 L51.307,398.528 C58.306,398.528 62.524,393.22 64.548,390.66 L232.176,180.17 C239.329,171.204 236.378,163.157 235.297,160.816 C234.175,158.573 229.672,151.224 218.251,151.224 L164.911,151.224 L234.711,28.239 C238.37,21.752 238.573,14.729 235.232,9.015 Z" id="Path"></path>
        </g>
    </g>
</svg>