<?xml version="1.0" encoding="UTF-8"?>
<svg width="136px" height="112px" viewBox="0 0 136 112" version="1.1" xmlns="http://www.w3.org/2000/svg" xmlns:xlink="http://www.w3.org/1999/xlink">
    <!-- Generator: Sketch 61.2 (89653) - https://sketch.com -->
    <title>spaceship</title>
    <desc>Created with Sketch.</desc>
    <defs>
        <polygon id="path-1" points="0 0.0205798046 78.9715629 0.0205798046 78.9715629 43.4398632 0 43.4398632"></polygon>
        <polyline id="path-3" points="0.0277828571 12.5289535 16.2482171 18.8923333 25.9433943 6.37354264 9.72296 0.0104573643"></polyline>
        <polyline id="path-5" points="0.0277828571 12.5289535 16.2482171 18.8923333 25.9433943 6.37354264 9.72296 0.0104573643"></polyline>
        <polyline id="path-7" points="0.0277828571 12.5289535 16.2482171 18.8923333 25.9433943 6.37354264 9.72296 0.0104573643"></polyline>
        <polygon id="path-9" points="0.00664541724 0.132 95.875513 0.132 95.875513 100.980234 0.00664541724 100.980234"></polygon>
        <polygon id="path-11" points="0.124316142 0.132 40.6921442 0.132 40.6921442 41.988322 0.124316142 41.988322"></polygon>
        <polyline id="path-13" points="0.00362694301 13.9405986 17.5007254 20.998669 27.9576373 7.11500704 10.4606839 0.0569366197"></polyline>
        <polyline id="path-15" points="0.00362694301 13.9405986 17.5007254 20.998669 27.9576373 7.11500704 10.4606839 0.0569366197"></polyline>
        <polyline id="path-17" points="0.00362694301 13.9405986 17.5007254 20.998669 27.9576373 7.11500704 10.4606839 0.0569366197"></polyline>
    </defs>
    <g id="GoodUp-Website-Designs-1600px" stroke="none" stroke-width="1" fill="none" fill-rule="evenodd">
        <g id="impact.goodup.com" transform="translate(-767.000000, -87.000000)">
            <g id="spaceship" transform="translate(822.500000, 132.000000) rotate(51.000000) translate(-822.500000, -132.000000) translate(756.000000, 78.000000)">
                <polygon id="Fill-1" fill="#B3B3B3" points="43.9684337 59 44 60.492102 33.0315663 72 33 70.5077498"></polygon>
                <g id="Group-9" transform="translate(0.000000, 28.000000)">
                    <g id="Group-4">
                        <mask id="mask-2" fill="white">
                            <use xlink:href="#path-1"></use>
                        </mask>
                        <g id="Clip-3"></g>
                        <path d="M3.73002104,33.2091792 C6.20491304,30.5461173 78.9715629,0.0205798046 78.9715629,0.0205798046 L33.3179484,41.7325016 L23.8519242,43.4398632 L0.555309683,37.8500423 C0.0567417132,37.7304332 -0.147746182,37.3814267 0.114998696,37.0985277 L3.73002104,33.2091792 Z" id="Fill-2" fill="#402E83" mask="url(#mask-2)"></path>
                    </g>
                    <polygon id="Fill-5" fill="#19133A" points="33.3179926 41.7325749 33.3484451 43.2089267 23.8824209 44.9162883 23.8519683 43.4397899"></polygon>
                    <path d="M0.555368529,37.8500717 C0.208768901,37.7669609 0.00428100559,37.5728893 1.47113594e-05,37.3675309 L0.0304672253,38.8437362 C0.0347335196,39.0493876 0.239221415,39.2431661 0.585821043,39.3264235 L23.8824356,44.9162443 L23.8519831,43.4398925 L0.555368529,37.8500717 Z" id="Fill-7" fill="#19133A"></path>
                </g>
                <g id="Group-19" transform="translate(19.000000, 50.000000)">
                    <g id="Group-12">
                        <mask id="mask-4" fill="white">
                            <use xlink:href="#path-3"></use>
                        </mask>
                        <g id="Clip-11"></g>
                        <path d="M17.8485246,3.1980093 C17.671576,3.12848992 17.489576,3.06309457 17.303416,3.00167597 C12.6544674,1.47107132 6.95660457,3.11935814 4.57723314,6.68266822 C2.29190743,10.1036992 3.89514171,14.0461256 8.13923314,15.7110558 C8.31633029,15.7805752 8.49818171,15.8461178 8.68434171,15.9075364 C13.3332903,17.4381411 19.0307074,15.7904434 21.4105246,12.2263969 C23.6959989,8.80536589 22.0927646,4.86279225 17.8485246,3.1980093 M15.5565131,8.63569147 C16.079336,8.47323411 16.5933931,8.47573798 17.1010617,8.64231938 C17.1475646,8.65748992 17.1925817,8.67383876 17.2359646,8.69077674 C17.7324903,8.88548992 18.0336446,9.19214109 18.1379417,9.61073023 C18.2521931,10.0664357 18.1517589,10.5298 17.8372331,11.0002341 C17.517656,11.4798 17.073576,11.8371178 16.5058846,12.0710093 C15.938936,12.3050481 15.3635189,12.3259628 14.7794846,12.1336062 C14.740856,12.1207922 14.7029703,12.1070946 14.6662731,12.0928078 C14.2131303,11.9150326 13.922376,11.6144202 13.7950503,11.1905287 L12.3580674,13.3425364 L11.1512217,12.9451566 L14.5291417,7.88732713 L15.7805589,8.29987752 L15.5565131,8.63569147 M9.67887886,9.50733488 C9.69745029,9.51469922 9.716616,9.52162171 9.736376,9.52824961 C9.939176,9.59467597 10.162776,9.59570698 10.4058389,9.53090078 C10.6487531,9.46638915 10.8478389,9.32808682 11.0036903,9.11717209 L12.3129017,7.15752093 L13.5634274,7.56962946 L11.3305474,10.9136295 L10.0786846,10.5018155 L10.2297817,10.2752884 C10.2690046,10.2162264 10.330216,10.1415519 10.4126731,10.0512651 C9.843496,10.3050403 9.28174743,10.3393581 8.72802171,10.1573116 C8.68924457,10.1443504 8.651656,10.1309473 8.615256,10.1166605 C8.22094743,9.9620093 7.96674171,9.72045891 7.85308457,9.39274574 C7.72947314,9.03380775 7.813416,8.63569147 8.10639886,8.19707132 L9.43403314,6.20928837 L10.6948103,6.6247845 L9.403576,8.55733488 C9.25455886,8.78135814 9.21593029,8.98019535 9.28843314,9.15473023 C9.35439886,9.31394729 9.48484457,9.4311876 9.67887886,9.50733488 M16.2880789,9.4222031 C16.2619303,9.41189302 16.2345931,9.40202481 16.2063646,9.39289302 C15.9209589,9.29877674 15.6328789,9.30422636 15.3445017,9.40997829 C15.0561246,9.51558295 14.8245017,9.69836589 14.6502274,9.95891628 C14.4917017,10.1964899 14.4432674,10.4355364 14.5040331,10.6757612 C14.560936,10.8977225 14.7108446,11.0569395 14.9545017,11.1525287 C14.9745589,11.1604822 14.9953589,11.1676992 15.0167531,11.174769 C15.3265246,11.2768388 15.6221817,11.2712419 15.9059531,11.1579783 C16.1882389,11.044862 16.4149589,10.8601643 16.5853703,10.6046217 C16.7597931,10.3440713 16.8189246,10.1034047 16.7630617,9.88144341 C16.7129931,9.67966047 16.5547646,9.52677674 16.2880789,9.4222031" id="Fill-10" fill="#FEFEFE" mask="url(#mask-4)"></path>
                    </g>
                    <g id="Group-15">
                        <mask id="mask-6" fill="white">
                            <use xlink:href="#path-5"></use>
                        </mask>
                        <g id="Clip-14"></g>
                        <path d="M13.5633829,7.56957054 L12.3128571,7.15746202 L11.0036457,9.11726047 C10.8479429,9.32802791 10.6487086,9.46633023 10.4057943,9.53084186 C10.16288,9.59564806 9.93913143,9.59461705 9.73648,9.5281907 C9.71657143,9.52156279 9.69740571,9.51464031 9.67883429,9.50727597 C9.4848,9.43127597 9.35450286,9.31403566 9.28838857,9.1548186 C9.21603429,8.98013643 9.25451429,8.78144651 9.40353143,8.55727597 L10.6947657,6.62472558 L9.43398857,6.20937674 L8.10650286,8.19715969 C7.81337143,8.63563256 7.72942857,9.03374884 7.85304,9.39268682 C7.96669714,9.72054729 8.22090286,9.96195039 8.61521143,10.1166016 C8.65161143,10.1310357 8.6892,10.1442915 8.72797714,10.1572527 C9.28185143,10.3394465 9.84345143,10.3049814 10.4126286,10.0513535 C10.3301714,10.141493 10.26896,10.2163147 10.2297371,10.2752295 L10.07864,10.5017566 L11.3305029,10.9135705 L13.5633829,7.56957054" id="Fill-13" fill="#402E83" mask="url(#mask-6)"></path>
                    </g>
                    <g id="Group-18">
                        <mask id="mask-8" fill="white">
                            <use xlink:href="#path-7"></use>
                        </mask>
                        <g id="Clip-17"></g>
                        <path d="M17.236024,8.69076202 C17.1926411,8.67382403 17.1474754,8.65747519 17.1011211,8.64230465 C16.5934526,8.47572326 16.0793954,8.47321938 15.5565726,8.63567674 L15.7806183,8.29986279 L14.5292011,7.8873124 L11.1512811,12.9451419 L12.3581269,13.3425217 L13.7951097,11.190514 C13.9224354,11.6144054 14.2131897,11.9150178 14.6663326,12.092793 C14.7030297,12.1070798 14.7407669,12.1207775 14.779544,12.1335915 C15.3635783,12.3259481 15.9389954,12.3050333 16.5057954,12.0709946 C17.0734869,11.8371031 17.5177154,11.4799326 17.8372926,11.0002194 C18.1516697,10.5297853 18.2522526,10.0664209 18.1380011,9.6107155 C18.0335554,9.19212636 17.7324011,8.88547519 17.236024,8.69076202 M14.9544126,11.152514 C14.710904,11.0569248 14.5608469,10.8977078 14.5040926,10.6757465 C14.4431783,10.4355217 14.4917611,10.1964752 14.6502869,9.95890155 C14.8245611,9.69835116 15.056184,9.51556822 15.3445611,9.40996357 C15.6329383,9.30421163 15.9210183,9.29876202 16.2062754,9.39287829 C16.2346526,9.40201008 16.2618411,9.41187829 16.2881383,9.42218837 C16.5546754,9.52676202 16.7130526,9.67964574 16.7631211,9.88142868 C16.818984,10.1033899 16.759704,10.3440566 16.5854297,10.604607 C16.4150183,10.8601496 16.1882983,11.0448473 15.905864,11.1579636 C15.6222411,11.2712271 15.326584,11.276824 15.0168126,11.1747543 C14.9952697,11.1676845 14.9746183,11.1604674 14.9544126,11.152514" id="Fill-16" fill="#402E83" mask="url(#mask-8)"></path>
                    </g>
                </g>
                <g id="Group-64" transform="translate(25.000000, 0.000000)">
                    <g id="Group-22" transform="translate(11.124487, 0.000000)">
                        <mask id="mask-10" fill="white">
                            <use xlink:href="#path-9"></use>
                        </mask>
                        <g id="Clip-21"></g>
                        <path d="M0.00664541724,63.3858439 C0.00664541724,63.3858439 22.6515633,42.4076488 37.6096071,28.4916 C52.5676509,14.5754049 83.7255825,-4.31771707 92.8713746,1.07467317 C100.97366,5.85199024 91.6248465,33.4764293 77.4977726,53.6236976 C63.3706988,73.7711122 36.7786372,100.980234 36.7786372,100.980234 L0.00664541724,63.3858439 Z" id="Fill-20" fill="#291A57" mask="url(#mask-10)"></path>
                    </g>
                    <g id="Group-25" transform="translate(66.307798, 0.000000)">
                        <mask id="mask-12" fill="white">
                            <use xlink:href="#path-11"></use>
                        </mask>
                        <g id="Clip-24"></g>
                        <path d="M11.9781889,12.7905659 C22.4480877,14.6362244 30.9858387,24.4912976 31.0484871,34.8031024 C31.0647347,37.4567122 30.5167074,39.8810049 29.5172601,41.988322 C39.2801684,24.1242732 44.3065337,4.9769561 37.6880494,1.07461463 C31.4139851,-2.62460488 14.7803886,5.10559024 0.124316142,14.8175415 C3.35890711,12.8129561 7.48038317,11.9975415 11.9781889,12.7905659" id="Fill-23" fill="#402E83" mask="url(#mask-12)"></path>
                    </g>
                    <path d="M30.7240327,57.1198829 C17.4847222,54.7858829 6.81692462,63.464078 6.89567537,76.5033951 C6.97544856,89.5419805 17.7716168,102.004566 31.0109274,104.338566 C44.2502379,106.67242 54.9180354,97.993639 54.8392847,84.9549073 C54.7595115,71.9155902 43.9633432,59.4537366 30.7240327,57.1198829" id="Fill-26" fill="#19133A"></path>
                    <polygon id="Fill-28" fill="#F9AB19" points="3.31555089 79.0746732 13.0458176 76.6380878 24.017343 85.8709171 21.0692075 94.9331122 8.04492161 92.3973073"></polygon>
                    <path d="M21.810596,95.1057805 C19.6451268,97.7116829 16.0424031,99.0508537 11.97128,98.3655366 C5.37972873,97.2559756 0.0576863201,91.2602195 0.082483136,84.9735366 C0.0920844049,82.569878 0.881922982,80.4716341 2.22227729,78.8588049 L6.67016922,73.5065122 C5.32981491,75.1194878 4.53997633,77.2177317 4.53046197,79.6212439 C4.50557825,85.9077805 9.82762066,91.9038293 16.4193183,93.0133902 C20.4902951,93.6987073 24.0930187,92.3593902 26.258488,89.7536341 C24.924135,91.3591463 23.144949,93.4999756 21.810596,95.1057805" id="Fill-30" fill="#8B6527"></path>
                    <path d="M28.3983407,83.6392683 C28.4231375,77.3525854 23.1002168,71.3565366 16.5095438,70.247122 C12.4381279,69.5616585 8.83569699,70.9009756 6.67022777,73.5065854 L2.22233584,78.8587317 C4.38765869,76.253122 7.99023598,74.9138049 12.0615055,75.5994146 C18.6523249,76.7088293 23.9752456,82.7047317 23.9503618,88.9914146 C23.9408475,91.3947805 23.1510089,93.492878 21.8106546,95.1057073 L26.2585465,89.753561 C27.5989008,88.1407317 28.3887394,86.0426341 28.3983407,83.6392683" id="Fill-32" fill="#291A57"></path>
                    <path d="M11.0339981,78.6853902 L12.0615494,75.5993415 C18.6523688,76.7087561 23.9752895,82.7048049 23.9503473,88.9914878 C23.9253756,95.2780244 18.5620555,99.4749512 11.9713825,98.3655366 C5.37968482,97.2559756 0.0576424077,91.2602195 0.0824392236,84.9735366 C0.10740985,78.6868537 5.46985171,74.4896341 12.0615494,75.5993415 L11.0339981,78.6853902 C5.52064378,77.7559756 1.03044952,81.2706585 1.01083529,86.5291463 C0.988732695,91.7870488 5.44511436,96.8077317 10.9584687,97.7346585 C16.4710911,98.6639268 20.9621636,95.1493902 20.9816315,89.8909024 C21.0038804,84.6331463 16.5466205,79.6121707 11.0339981,78.6853902" id="Fill-34" fill="#19133A"></path>
                    <polygon id="Fill-36" fill="#F9AB19" points="26.3350713 88.5311415 36.065338 86.0947024 47.0368633 95.3273854 44.0885815 104.38958 31.064442 101.853776"></polygon>
                    <path d="M44.8301164,104.562249 C42.6645008,107.168151 39.0619235,108.507468 34.9908004,107.822151 C28.3992491,106.712444 23.0772067,100.716688 23.1020035,94.4300049 C23.1116048,92.0263463 23.9014434,89.9282488 25.2417977,88.3152732 L29.6896896,82.9631268 C28.3493353,84.5761024 27.5594967,86.6742 27.5499824,89.0777122 C27.5250986,95.3643951 32.847141,101.360298 39.4388387,102.469859 C43.5098155,103.155322 47.1125391,101.815859 49.2780083,99.2101024 C47.9436554,100.815761 46.1644694,102.95659 44.8301164,104.562249" id="Fill-38" fill="#8B6527"></path>
                    <path d="M51.4178171,93.0957366 C51.442614,86.8092 46.1198397,80.8130049 39.5290202,79.7035902 C35.4576044,79.0182732 31.8551735,80.3574439 29.6897042,82.9632 L25.2418123,88.3153463 C27.4071352,85.7095902 31.0097124,84.3704195 35.0809819,85.0558829 C41.6718014,86.1652976 46.994722,92.1613463 46.9698383,98.4478829 C46.9603239,100.851395 46.1704854,102.949493 44.8301311,104.562176 L49.278023,99.2100293 C50.6183773,97.5973463 51.4082159,95.4992488 51.4178171,93.0957366" id="Fill-40" fill="#291A57"></path>
                    <path d="M34.0534892,88.1418439 L35.0810405,85.0557951 C41.6718599,86.1652098 46.9947806,92.1614049 46.9698384,98.4479415 C46.9448668,104.734624 41.5815466,108.931551 34.9908736,107.822137 C28.3991759,106.712429 23.0771335,100.716673 23.1020757,94.4299902 C23.1270473,88.1434537 28.4893428,83.9460878 35.0810405,85.0557951 L34.0534892,88.1418439 C28.5401349,87.2125756 24.0499406,90.7271122 24.0303264,95.9856 C24.0082238,101.243502 28.4646055,106.264185 33.9781062,107.191259 C39.4905822,108.120527 43.9816547,104.605844 44.0012689,99.3475024 C44.0233715,94.0896 39.5661116,89.0686244 34.0534892,88.1418439" id="Fill-42" fill="#19133A"></path>
                    <polygon id="Fill-44" fill="#F9AB19" points="18.3236841 65.9769805 28.0539509 63.5403951 39.0254762 72.7732244 36.0771944 81.8354195 23.0530549 79.2996146"></polygon>
                    <path d="M36.8187439,82.0080732 C34.6532747,84.6139756 31.050551,85.9531463 26.9794279,85.2678293 C20.3878766,84.1582683 15.0658342,78.1625122 15.090631,71.8758293 C15.1002323,69.4721707 15.8900709,67.3739268 17.2304252,65.7610976 L21.6783171,60.4088049 C20.3379628,62.0217805 19.5481242,64.1200244 19.5386098,66.5235366 C19.5137261,72.8100732 24.8357685,78.806122 31.4274662,79.9156829 C35.498443,80.601 39.1011666,79.2616829 41.2666358,76.6559268 C39.9322829,78.261439 38.1530969,80.4024146 36.8187439,82.0080732" id="Fill-46" fill="#8B6527"></path>
                    <path d="M43.4064739,70.541561 C43.4312707,64.254878 38.1083501,58.2588293 31.517677,57.1494146 C27.4462611,56.4639512 23.8438302,57.8032683 21.678361,60.408878 L17.2304691,65.7610244 C19.3957919,63.1554146 22.9983692,61.8160976 27.0696387,62.5017073 C33.6604581,63.611122 38.9833788,69.6070244 38.9584951,75.8937073 C38.9489807,78.2970732 38.1591421,80.3953171 36.8187878,82.008 L41.2666798,76.6558537 C42.6070341,75.0431707 43.3968726,72.9449268 43.4064739,70.541561" id="Fill-48" fill="#291A57"></path>
                    <path d="M26.042146,65.5876829 L27.0696973,62.5016341 C33.6605167,63.6110488 38.9834373,69.6070976 38.9584952,75.8937805 C38.9335235,82.1803171 33.5702034,86.3773902 26.9795304,85.2678293 C20.3878327,84.1582683 15.0657903,78.1625122 15.0905871,71.8758293 C15.1155577,65.5891463 20.4779996,61.3919268 27.0696973,62.5016341 L26.042146,65.5876829 C20.5287917,64.6582683 16.0385974,68.1729512 16.0189832,73.431439 C15.9968806,78.6893415 20.4532622,83.7100244 25.9666166,84.6369512 C31.479239,85.5662195 35.9703115,82.0516829 35.9897793,76.7931951 C36.0120283,71.535439 31.5547684,66.5144634 26.042146,65.5876829" id="Fill-50" fill="#19133A"></path>
                    <polygon id="Fill-52" fill="#19133A" points="32.3644115 57.4461512 30.4894963 56.9894195 27.2672008 53.3398098 29.1419696 53.7965415"></polygon>
                    <path d="M32.5852618,24.8654488 C35.0737803,22.4335463 37.2582782,23.2472049 38.1491155,26.9382293 L43.0042222,47.0490585 L32.3643822,57.4461805 L29.1419404,53.7964244 L28.4828145,29.8567171 C28.4687625,29.3442293 28.68569,28.6760341 28.9503357,28.4173024 L32.5852618,24.8654488 Z" id="Fill-54" fill="#402E83"></path>
                    <path d="M33.8652658,23.0796293 C32.9433971,22.8551415 31.8593451,23.2861171 30.7104491,24.4087024 L27.0756694,27.9607024 C26.8108773,28.2194341 26.5939498,28.8876293 26.6081482,29.3999707 L27.2671276,53.3398244 L29.1420428,53.7964098 L28.482917,29.8568488 C28.468865,29.344361 28.6856461,28.6760195 28.9504382,28.4174341 L32.5852179,24.8654341 C33.734114,23.7427024 34.8181659,23.3117268 35.7400346,23.536361 L33.8652658,23.0796293 Z" id="Fill-56" fill="#19133A"></path>
                    <polygon id="Fill-58" fill="#19133A" points="54.0189573 90.461722 54.47067 88.8853317 59.5626112 93.4827951 59.6302364 95.3707463"></polygon>
                    <path d="M94.3354302,89.2449805 C94.3660226,90.0994683 93.9198721,93.5029317 93.3514986,94.593322 L89.9314508,98.3724439 C89.6823208,98.6477122 88.933028,98.7895171 88.317961,98.6782976 L59.5624795,93.4827366 L59.630251,95.3706878 L88.3857326,100.566249 C89.0006532,100.677322 89.7500923,100.535663 89.9990759,100.260395 L92.8811963,97.0338585 C93.651567,96.1827366 93.9712497,95.2322488 94.1013769,93.9002488 C94.2315041,92.5682488 94.3354302,89.2449805 94.3354302,89.2449805" id="Fill-60" fill="#19133A"></path>
                    <path d="M93.3515425,94.5933073 L89.9314947,98.3724293 C89.6823647,98.6476976 88.933072,98.7895024 88.3180049,98.6782829 L59.5625234,93.482722 L54.4707286,88.8852585 L95.8934878,41.7846732 C95.8934878,41.7846732 95.6931007,92.0061366 93.3515425,94.5933073" id="Fill-62" fill="#402E83"></path>
                </g>
                <g id="Group-74" transform="translate(90.000000, 72.000000)">
                    <g id="Group-67">
                        <mask id="mask-14" fill="white">
                            <use xlink:href="#path-13"></use>
                        </mask>
                        <g id="Clip-66"></g>
                        <path d="M19.2270197,3.59317394 C19.0416104,3.51834296 18.8512684,3.44765282 18.6565741,3.38125141 C13.6473306,1.67551901 7.49734093,3.49349789 4.92003523,7.44282887 C2.44326839,11.2379134 4.16708187,15.6201106 8.75211813,17.4695894 C8.93752746,17.5444204 9.12786943,17.6151106 9.32256373,17.681512 C14.3318073,19.3873923 20.4809264,17.5691176 23.0583772,13.6197866 C25.5358694,9.82485 23.8114756,5.44235704 19.2270197,3.59317394 M16.7556207,9.62697676 C17.3196829,9.44788521 17.8747503,9.45113873 18.4205326,9.63688521 C18.4691337,9.65344859 18.5162839,9.67104718 18.5618383,9.68938521 C19.1000767,9.90633592 19.4251959,10.247512 19.5367606,10.7135049 C19.6584808,11.2192796 19.5489472,11.7327444 19.2091751,12.2538993 C18.8615689,12.7852585 18.381942,13.1804134 17.7700041,13.439512 C17.1571959,13.6981669 16.5366984,13.7202021 15.9070611,13.5054697 C15.8664394,13.4917162 15.8268332,13.4769275 15.7883876,13.4613993 C15.2984601,13.2638218 14.9848021,12.9294486 14.8482839,12.4584275 L13.2923254,14.8431106 L11.9918487,14.3997444 L15.6501285,8.79570211 L16.9983358,9.25518803 L16.7556207,9.62697676 M10.4144187,10.5842514 C10.4344394,10.5923852 10.4550404,10.6000754 10.4762218,10.6073218 C10.6952891,10.6817092 10.9351026,10.6833359 11.1981285,10.6114627 C11.4607192,10.5403289 11.6758694,10.3877092 11.8438694,10.1537514 L13.2612788,7.98217394 L14.609486,8.44151197 L12.1907503,12.1474204 L10.8423979,11.6879345 L11.0061907,11.4375613 C11.0492788,11.3721951 11.115144,11.2887866 11.2034964,11.1891106 C10.5896725,11.4687655 9.98353782,11.5072162 9.38639793,11.3032796 C9.34534093,11.2890824 9.30558964,11.2744415 9.26714404,11.2589134 C8.84163109,11.0872162 8.56801451,10.8189486 8.44556891,10.4539627 C8.3128228,10.0559979 8.40538238,9.61455423 8.72208705,9.12815282 L10.159372,6.92596268 L11.5175896,7.38855423 L10.120056,9.52981479 C9.95887461,9.77782183 9.91636684,9.99920915 9.99427358,10.19235 C10.0652166,10.3690754 10.2050715,10.4998077 10.4144187,10.5842514 M17.5425223,10.5014345 C17.5142321,10.4898993 17.4846363,10.4791035 17.4538798,10.4686035 C17.146315,10.3633077 16.836429,10.369519 16.5245119,10.4856106 C16.2130301,10.6025894 15.9632062,10.805343 15.7747503,11.0941669 C15.6034135,11.3571106 15.5500249,11.6215331 15.6145845,11.8889134 C15.6758073,12.136181 15.8372788,12.3127585 16.1013202,12.4192373 C16.1220663,12.427519 16.1433927,12.4355049 16.1654446,12.4430472 C16.4998487,12.5564768 16.8194549,12.5510049 17.1248435,12.4257444 C17.4296518,12.3010754 17.6746881,12.0966951 17.8602425,11.8131951 C18.0488435,11.5243711 18.1123876,11.2572866 18.053486,11.01135 C17.9992269,10.7873007 17.8297762,10.6172303 17.5425223,10.5014345" id="Fill-65" fill="#FEFEFE" mask="url(#mask-14)"></path>
                    </g>
                    <g id="Group-70">
                        <mask id="mask-16" fill="white">
                            <use xlink:href="#path-15"></use>
                        </mask>
                        <g id="Clip-69"></g>
                        <path d="M14.6095295,8.44154155 L13.2613223,7.98220352 L11.843913,10.153781 C11.675913,10.3877387 11.4606176,10.5402106 11.198172,10.6114923 C10.9351461,10.6833655 10.6953326,10.6815908 10.4762653,10.6073514 C10.4550839,10.6001049 10.4343378,10.5924148 10.4143171,10.584281 C10.205115,10.4998373 10.0652601,10.3691049 9.9943171,10.1923796 C9.91626528,9.99923873 9.95891813,9.77785141 10.1199544,9.52969648 L11.5176332,7.3885838 L10.1592705,6.92599225 L8.72213057,9.12818239 C8.40542591,9.6145838 8.31286632,10.0560275 8.44546736,10.4538444 C8.56791295,10.8189782 8.84167461,11.0872458 9.26718756,11.258943 C9.30563316,11.2744711 9.34538446,11.289112 9.38629637,11.3033092 C9.98358135,11.5070979 10.5897161,11.4687951 11.2035399,11.1891401 C11.1151876,11.2888162 11.0493223,11.3720768 11.0062342,11.4375908 L10.8424415,11.6879641 L12.1906487,12.14745 L14.6095295,8.44154155" id="Fill-68" fill="#402E83" mask="url(#mask-16)"></path>
                    </g>
                    <g id="Group-73">
                        <mask id="mask-18" fill="white">
                            <use xlink:href="#path-17"></use>
                        </mask>
                        <g id="Clip-72"></g>
                        <path d="M18.5618383,9.68934085 C18.5162839,9.67100282 18.4691337,9.65355211 18.4205326,9.63698873 C17.8747503,9.45124225 17.3196829,9.44784085 16.7556207,9.62693239 L16.9983358,9.25514366 L15.6501285,8.79565775 L11.9918487,14.3998479 L13.2923254,14.8432141 L14.8482839,12.458531 C14.9848021,12.9294042 15.2984601,13.2637775 15.7883876,13.4613549 C15.8268332,13.4768831 15.8664394,13.4916718 15.9070611,13.5055732 C16.5366984,13.7201577 17.1571959,13.6981225 17.7700041,13.4394676 C18.381942,13.180369 18.8615689,12.785362 19.2091751,12.2540028 C19.5489472,11.7327 19.6584808,11.2193831 19.5366155,10.7136085 C19.4251959,10.2474676 19.1000767,9.90643944 18.5618383,9.68934085 M16.1013202,12.419193 C15.8372788,12.3127141 15.6758073,12.1361366 15.6145845,11.888869 C15.5500249,11.6214887 15.6034135,11.3570662 15.7747503,11.0941225 C15.9632062,10.8052986 16.2130301,10.602693 16.5245119,10.4857141 C16.836429,10.3696225 17.146315,10.3634113 17.4538798,10.468707 C17.4846363,10.4790592 17.5142321,10.4898549 17.5425223,10.5013901 C17.8297762,10.6171859 17.9992269,10.7874042 18.053486,11.0113056 C18.1123876,11.2573901 18.0488435,11.5243268 17.8602425,11.8131507 C17.6746881,12.0966507 17.4296518,12.301031 17.1246984,12.4257 C16.8194549,12.5511085 16.4998487,12.5565803 16.1654446,12.4430028 C16.1433927,12.4354606 16.1220663,12.4276225 16.1013202,12.419193" id="Fill-71" fill="#402E83" mask="url(#mask-18)"></path>
                    </g>
                </g>
            </g>
        </g>
    </g>
</svg>