<?xml version="1.0" encoding="UTF-8"?>
<svg width="241px" height="130px" viewBox="0 0 241 130" version="1.1" xmlns="http://www.w3.org/2000/svg" xmlns:xlink="http://www.w3.org/1999/xlink">
    <!-- Generator: Sketch 61 (89581) - https://sketch.com -->
    <title>Beam up email</title>
    <desc>Created with Sketch.</desc>
    <g id="Beam-up-email" stroke="none" stroke-width="1" fill="none" fill-rule="evenodd">
        <g id="Circle-icons-ufo" fill-rule="nonzero">
            <path d="M240.172536,90 C240.172536,99.9375 186.678284,129.75 120.185428,129.75 C53.6925726,129.75 0.198320462,99.9375 0.198320462,90 C0.198320462,87.9742969 -1.15700266,80.0460022 3.21850376,75.4731995 C7.59401019,70.9003967 68.752786,50.25 120.185428,50.25 C174.999225,50.25 227.363365,68.6799866 235.294154,73.827301 C243.224942,78.9746155 240.172536,88.3418126 240.172536,90 Z" id="Shape" fill="#766F8F" opacity="0.797950634"></path>
            <path d="M240.75,79.5 C240.75,89.4375 187.25,119.25 120.75,119.25 C54.25,119.25 0.75,89.4375 0.75,79.5 C0.75,70.55625 54.25,39.75 120.75,39.75 C187.25,39.75 240.75,70.059375 240.75,79.5 Z" id="Shape" fill="#CACACA"></path>
            <path d="M168,57.25 C168,83.25 146.944737,84.75 120.375,84.75 C93.8052632,84.75 72.75,83.25 72.75,57.25 C72.75,31.25 94.3065789,9.75 120.375,9.75 C146.443421,9.75 168,30.75 168,57.25 Z" id="Shape" fill="#231F20" opacity="0.2"></path>
            <path d="M168,47.5 C168,73.5 146.944737,75 120.375,75 C93.8052632,75 72.75,73.5 72.75,47.5 C72.75,21.5 94.3065789,0 120.375,0 C146.443421,0 168,21 168,47.5 Z" id="Shape" fill="#3C96DC"></path>
            <path d="M105.6375,49.95 C108.1125,49.95 109.9875,48.7125 111.1875,46.9875 C111.1125,47.5125 111.075,47.9625 111.075,48.2625 L111.075,49.5 L116.325,49.5 L116.325,31.2 L111.075,31.2 L111.075,41.925 C110.9625,44.4 109.2375,45.6375 107.6625,45.6375 C105.9,45.6375 104.2875,44.325 104.2875,41.775 L104.2875,31.2 L99,31.2 L99,42.075 C99,46.9875 101.85,49.95 105.6375,49.95 Z M126.1875,58.875 L126.1875,47.1 C127.6125,48.825 129.6,49.875 131.7375,49.875 C136.875,49.875 139.65,45.225 139.65,40.275 C139.65,35.4 136.7625,30.7875 131.7,30.7875 C129.675,30.7875 127.8,31.5375 126.375,33.0375 L126.375,31.2 L121.125,31.2 L121.125,58.875 L126.1875,58.875 Z M130.35,45.225 C127.95,45.225 126.3,42.825 126.3,40.3125 C126.3,37.5 127.9125,35.475 130.35,35.475 C133.0875,35.475 134.4375,37.65 134.4375,40.35 C134.4375,43.0125 133.05,45.225 130.35,45.225 Z" id="up" fill="#FFFFFF"></path>
        </g>
    </g>
</svg>